<?xml version="1.0" encoding="UTF-8"?>
<svg width="58px" height="57px" viewBox="0 0 58 57" version="1.1" xmlns="http://www.w3.org/2000/svg" xmlns:xlink="http://www.w3.org/1999/xlink">
    <!-- Generator: Sketch 49.3 (51167) - http://www.bohemiancoding.com/sketch -->
    <title>360</title>
    <desc>Created with Sketch.</desc>
    <defs></defs>
    <g id="Page-1" stroke="none" stroke-width="1" fill="none" fill-rule="evenodd">
        <g id="update_ie" transform="translate(-851.000000, -440.000000)">
            <g id="Group-10" transform="translate(217.000000, 391.000000)">
                <g id="Group-3" transform="translate(555.000000, 0.000000)">
                    <g id="Group-8" transform="translate(45.000000, 50.000000)">
                        <g id="360" transform="translate(34.000000, 0.000000)">
                            <circle id="Oval" stroke="#EAEAEA" cx="29.5" cy="27.5" r="27.5"></circle>
                            <path d="M5.18165838,49.0681604 C2.80631998,46.692822 3.51952592,41.7064246 6.58389377,35.6985713 C8.48779097,41.0415717 12.1988795,45.5263073 16.9797768,48.4214398 C11.6851294,50.8269988 7.34545265,51.2319547 5.18165838,49.0681604 Z M49.7872497,4.46861324 C51.6488381,6.34833395 51.6004851,9.81161361 50.0108821,14.1271139 C47.2849848,9.96876067 43.3200434,6.69284868 38.641896,4.81917208 C43.6403816,2.67351017 47.7080731,2.38943662 49.7872497,4.46861324 Z M19.3248947,23.8400116 C19.6271006,18.4486583 24.1118362,14.1452463 29.581763,14.1452463 C35.0516899,14.1452463 39.5364255,18.4486583 39.8386314,23.8400116 L19.3248947,23.8400116 Z M40.7512932,30.2830415 L53.8549412,30.2830415 C53.9576912,29.3764238 54,28.4456296 54,27.4967031 C54,23.0421881 52.8032646,18.8657025 50.7180439,15.2694522 C52.875794,9.53358417 52.7972205,4.66806913 49.9081321,1.76084834 C47.1580583,-0.977137142 39.7902784,-0.529872405 31.4554396,3.15703961 C30.8389396,3.10868667 30.2163954,3.0845102 29.5878071,3.0845102 C18.1523358,3.0845102 8.55427626,10.9539519 5.90090843,21.5613791 C9.49111456,16.9678494 13.2626442,13.6375403 18.3094828,11.213849 C17.8501298,11.6429814 15.1786297,14.3023933 14.7253208,14.7557022 C1.42826106,28.0527619 -2.76635687,45.4175131 1.74859932,49.9264252 C5.18165838,53.3534402 11.3950118,52.7732048 18.5331152,49.2797046 C21.851336,50.9720576 25.6107774,51.9209842 29.5938513,51.9209842 C40.3161167,51.9209842 49.4004262,45.0186013 52.6944705,35.4084536 L39.4820284,35.4084536 C37.6627489,38.7629391 34.1148516,41.0415717 30.0350719,41.0415717 C25.9552922,41.0415717 22.4013508,38.7629391 20.5820712,35.4084536 C19.7721594,33.8974241 19.3128064,32.1567181 19.3128064,30.3193062 L19.3128064,30.2769974 L40.7512932,30.2830415 Z" id="Shape-Copy" fill="#1ED67E" fill-rule="nonzero"></path>
                        </g>
                    </g>
                </g>
            </g>
        </g>
    </g>
</svg>