<?xml version="1.0" encoding="UTF-8"?>
<svg width="54px" height="53px" viewBox="0 0 54 53" version="1.1" xmlns="http://www.w3.org/2000/svg" xmlns:xlink="http://www.w3.org/1999/xlink">
    <!-- Generator: Sketch 49.3 (51167) - http://www.bohemiancoding.com/sketch -->
    <title>Shape</title>
    <desc>Created with Sketch.</desc>
    <defs></defs>
    <g id="Page-1" stroke="none" stroke-width="1" fill="none" fill-rule="evenodd">
        <g id="update_ie" transform="translate(-296.000000, -441.000000)" fill="#08BBF1" fill-rule="nonzero">
            <g id="Group-10" transform="translate(217.000000, 391.000000)">
                <g id="Group-9">
                    <g id="Group-4" transform="translate(50.000000, 50.000000)">
                        <g id="Group">
                            <path d="M34.1816584,49.0681604 C31.80632,46.692822 32.5195259,41.7064246 35.5838938,35.6985713 C37.487791,41.0415717 41.1988795,45.5263073 45.9797768,48.4214398 C40.6851294,50.8269988 36.3454527,51.2319547 34.1816584,49.0681604 Z M78.7872497,4.46861324 C80.6488381,6.34833395 80.6004851,9.81161361 79.0108821,14.1271139 C76.2849848,9.96876067 72.3200434,6.69284868 67.641896,4.81917208 C72.6403816,2.67351017 76.7080731,2.38943662 78.7872497,4.46861324 Z M48.3248947,23.8400116 C48.6271006,18.4486583 53.1118362,14.1452463 58.581763,14.1452463 C64.0516899,14.1452463 68.5364255,18.4486583 68.8386314,23.8400116 L48.3248947,23.8400116 Z M69.7512932,30.2830415 L82.8549412,30.2830415 C82.9576912,29.3764238 83,28.4456296 83,27.4967031 C83,23.0421881 81.8032646,18.8657025 79.7180439,15.2694522 C81.875794,9.53358417 81.7972205,4.66806913 78.9081321,1.76084834 C76.1580583,-0.977137142 68.7902784,-0.529872405 60.4554396,3.15703961 C59.8389396,3.10868667 59.2163954,3.0845102 58.5878071,3.0845102 C47.1523358,3.0845102 37.5542763,10.9539519 34.9009084,21.5613791 C38.4911146,16.9678494 42.2626442,13.6375403 47.3094828,11.213849 C46.8501298,11.6429814 44.1786297,14.3023933 43.7253208,14.7557022 C30.4282611,28.0527619 26.2336431,45.4175131 30.7485993,49.9264252 C34.1816584,53.3534402 40.3950118,52.7732048 47.5331152,49.2797046 C50.851336,50.9720576 54.6107774,51.9209842 58.5938513,51.9209842 C69.3161167,51.9209842 78.4004262,45.0186013 81.6944705,35.4084536 L68.4820284,35.4084536 C66.6627489,38.7629391 63.1148516,41.0415717 59.0350719,41.0415717 C54.9552922,41.0415717 51.4013508,38.7629391 49.5820712,35.4084536 C48.7721594,33.8974241 48.3128064,32.1567181 48.3128064,30.3193062 L48.3128064,30.2769974 L69.7512932,30.2830415 Z" id="Shape"></path>
                        </g>
                    </g>
                </g>
            </g>
        </g>
    </g>
</svg>